<svg height="512" viewBox="0 0 128 128" width="512" xmlns="http://www.w3.org/2000/svg"><g><path d="m119.014 33.134a7.277 7.277 0 0 0 -7.814-3.934 1.75 1.75 0 0 0 -1.037 2.847c1.554 1.854 3.742 6.938 3.742 12.436 0 6.974-3.511 15.434-20.242 16.131a61 61 0 0 1 -31.123-7.558 8.018 8.018 0 0 1 2.88-1.536 1.75 1.75 0 1 0 -.74-3.42 11.521 11.521 0 0 0 -5.338 3.147q-2.177-1.3-4.178-2.669a8.23 8.23 0 0 1 3.1-1.728 1.75 1.75 0 0 0 -.74-3.42 11.536 11.536 0 0 0 -5.244 3.07q-1.731-1.3-3.289-2.614a8 8 0 0 1 3.179-1.806 1.75 1.75 0 0 0 -.74-3.42 11.292 11.292 0 0 0 -5.087 2.9c-1.037-.955-2-1.892-2.875-2.8a11.833 11.833 0 0 1 3.612-2.11 1.749 1.749 0 1 0 -1.16-3.3 15.2 15.2 0 0 0 -4.815 2.828 37.767 37.767 0 0 1 -2.421-3.112 7.986 7.986 0 0 1 3.5-2.106 1.75 1.75 0 1 0 -.74-3.42 11.373 11.373 0 0 0 -4.669 2.515c-2.751-4.033-6.3-6.639-10.149-7.395a9.632 9.632 0 0 0 -7.9 1.667c-1.358 1.046-3.726 1.513-6.026 1.965-3.728.735-7.953 1.567-7.953 5.578 0 3.208 2.666 5.032 5.243 6.8 2.677 1.832 5.445 3.727 6.118 7.242a17.161 17.161 0 0 0 8.136 11.644c2.915 8.02 7.756 13.98 14.365 17.779a4.588 4.588 0 0 1 -.615 3.4c-2.451 3.156-7.051 6.325-8.773 7.454-1.446-.446-4.359-1.168-6.492-.537a1.75 1.75 0 1 0 .992 3.357c1.1-.327 3.339.143 4.789.629l.124.124-3.674 2.244a1.75 1.75 0 1 0 1.825 2.987l4.391-2.682.341.343a11.065 11.065 0 0 1 -1.008 4.213 1.75 1.75 0 0 0 .908 2.3 1.724 1.724 0 0 0 .7.146 1.748 1.748 0 0 0 1.6-1.05 14.714 14.714 0 0 0 1.288-5.735 69.349 69.349 0 0 1 5.852-4.015c4.078-2.575 7.6-4.8 8.492-8.517.05-.21.1-.427.149-.644a71.221 71.221 0 0 0 14.864 1.148h.862c2.376.035 4.747.1 7.137.173.191.268.383.527.566.77 1.261 1.678 1.418 2.1 1.042 2.806-1.869 3.529-5.862 7.44-7.369 8.851-1.5-.191-4.495-.4-6.488.585a1.75 1.75 0 1 0 1.553 3.136c1.031-.509 3.316-.43 4.828-.2l.143.1-3.236 2.837a1.75 1.75 0 0 0 2.31 2.63l3.867-3.395.395.278a11.086 11.086 0 0 1 -.272 4.329 1.75 1.75 0 0 0 3.4.825 14.718 14.718 0 0 0 .286-5.871 69.276 69.276 0 0 1 5.077-4.958c3.576-3.237 6.664-6.033 6.9-9.848.054-.857.094-1.77.124-2.693 10.662-.166 21.371-1.594 28.838-9.26.038-.04.075-.081.11-.125 14.715-18.301 7.085-33.384 4.579-38.336zm-7.245 36.074c-6.566 6.692-16.368 7.98-26.2 8.143.027-2.968-.021-5.4-.025-5.571a1.751 1.751 0 0 0 -1.749-1.714h-.037a1.751 1.751 0 0 0 -1.714 1.786c0 .067.137 6.756-.16 11.47-.151 2.4-2.627 4.637-5.761 7.474-1.565 1.416-3.3 2.989-4.983 4.81l-1.2-.849a40.963 40.963 0 0 0 7.127-8.869c1.485-2.8-.146-4.967-1.337-6.551-1.73-2.293-3.097-4.106 1.081-8.847a1.75 1.75 0 0 0 -2.627-2.313c-3.366 3.821-3.967 6.7-3.512 8.947-1.794-.05-3.6-.1-5.422-.124h-.895a68.135 68.135 0 0 1 -14.132-1.072c.734-3.744 1.279-7.291 1.31-7.493a1.75 1.75 0 1 0 -3.46-.528c-.011.066-1.025 6.679-2.127 11.273-.56 2.334-3.383 4.117-6.957 6.374-1.785 1.128-3.766 2.379-5.734 3.884l-1.039-1.038a40.934 40.934 0 0 0 8.542-7.515c1.553-2 1.574-4.311 1.233-6.775v-.016c-.1-.722-.23-1.457-.363-2.2-.6-3.352-1.217-6.818.556-10.432a1.75 1.75 0 0 0 -3.142-1.541c-1.9 3.876-1.667 7.586-1.169 10.767a30.11 30.11 0 0 1 -10.549-14.929 1.771 1.771 0 0 0 -.917-1.016 13.487 13.487 0 0 1 -6.858-9.492c-.945-4.932-4.623-7.45-7.579-9.473-2.306-1.578-3.72-2.612-3.72-3.908 0-1.052 2.126-1.552 5.129-2.143 2.693-.531 5.478-1.08 7.485-2.635a6.193 6.193 0 0 1 5.083-1c1.935.381 5.656 1.841 8.826 7.349 4.648 8.075 27.343 30.716 56.671 30.714q1.171 0 2.36-.049c20.531-.856 23.6-12.665 23.6-19.628a28.077 28.077 0 0 0 -2.312-10.853 3.944 3.944 0 0 1 .8 1.083c3.908 7.729 7.728 19.706-4.123 34.5z"/><path d="m38.741 42.431a1.75 1.75 0 0 0 -2.533 2.415c1.718 1.8 3.593 3.588 5.573 5.31a1.75 1.75 0 1 0 2.3-2.641c-1.901-1.651-3.697-3.362-5.34-5.084z"/><path d="m25.677 30.25a4.75 4.75 0 1 0 4.75 4.75 4.756 4.756 0 0 0 -4.75-4.75zm0 6a1.25 1.25 0 1 1 1.25-1.25 1.252 1.252 0 0 1 -1.25 1.25z"/></g></svg>