<svg height="512" viewBox="0 0 128 128" width="512" xmlns="http://www.w3.org/2000/svg" xmlns:xlink="http://www.w3.org/1999/xlink"><linearGradient id="a" gradientUnits="userSpaceOnUse" x1="97.043" x2="21.473" y1="88.885" y2="13.315"><stop offset="0" stop-color="#3ba9fd"/><stop offset="1" stop-color="#bae543"/></linearGradient><path d="m114.444 71.466c-.035.044-.072.085-.11.125-7.467 7.666-18.176 9.094-28.838 9.26-.03.923-.07 1.836-.124 2.693-.24 3.815-3.328 6.611-6.9 9.848a69.276 69.276 0 0 0 -5.077 4.958 14.718 14.718 0 0 1 -.286 5.871 1.75 1.75 0 0 1 -3.4-.825 11.086 11.086 0 0 0 .272-4.325l-.395-.278-3.867 3.395a1.75 1.75 0 0 1 -2.31-2.63l3.236-2.84-.143-.1c-1.512-.229-3.8-.308-4.828.2a1.75 1.75 0 1 1 -1.553-3.136c1.993-.987 4.987-.776 6.488-.585 1.5-1.408 5.491-5.319 7.365-8.848.376-.709.219-1.128-1.042-2.806-.183-.243-.375-.5-.566-.77-2.39-.07-4.761-.138-7.137-.173h-.862a71.221 71.221 0 0 1 -14.867-1.147c-.049.217-.1.434-.149.644a9.232 9.232 0 0 1 -3.2 4.816 1.75 1.75 0 0 1 -2.305-2.634 5.962 5.962 0 0 0 2.1-3c1.1-4.594 2.116-11.207 2.127-11.273a1.75 1.75 0 1 1 3.46.528c-.031.2-.576 3.749-1.31 7.493a68.135 68.135 0 0 0 14.132 1.073h.895c1.825.027 3.628.074 5.422.124-.455-2.245.146-5.126 3.512-8.947a1.75 1.75 0 0 1 2.627 2.313c-4.178 4.741-2.814 6.554-1.087 8.848 1.191 1.584 2.822 3.752 1.337 6.551a40.963 40.963 0 0 1 -7.127 8.869l1.2.849c1.68-1.821 3.418-3.394 4.983-4.81 3.134-2.837 5.61-5.078 5.761-7.474.3-4.714.162-11.4.16-11.47a1.751 1.751 0 0 1 1.714-1.786h.037a1.751 1.751 0 0 1 1.751 1.713c0 .167.052 2.6.025 5.571 9.836-.163 19.638-1.451 26.2-8.143 11.851-14.794 8.029-26.771 4.12-34.5a3.944 3.944 0 0 0 -.8-1.083 28.073 28.073 0 0 1 2.315 10.855c0 5.873-2.155 10.763-6.232 14.141a1.75 1.75 0 1 1 -2.232-2.7c3.293-2.729 4.964-6.58 4.964-11.445 0-5.5-2.188-10.582-3.742-12.436a1.75 1.75 0 0 1 1.042-2.84 7.277 7.277 0 0 1 7.819 3.937c2.501 4.949 10.131 20.032-4.575 38.329zm-12.8-8.429a1.754 1.754 0 0 0 .428-.053 28.737 28.737 0 0 0 3.025-.936 1.75 1.75 0 1 0 -1.225-3.278 25.174 25.174 0 0 1 -2.653.819 1.75 1.75 0 0 0 .425 3.448zm-57.566-15.522c-1.9-1.651-3.694-3.362-5.337-5.084a1.75 1.75 0 0 0 -2.533 2.415c1.718 1.8 3.593 3.588 5.573 5.31a1.75 1.75 0 1 0 2.3-2.641zm-18.401-17.265a4.75 4.75 0 1 1 -4.75 4.75 4.756 4.756 0 0 1 4.75-4.75zm0 3.5a1.25 1.25 0 1 0 1.25 1.25 1.252 1.252 0 0 0 -1.25-1.25zm15.7 25.367a1.75 1.75 0 0 0 -2.342.8c-1.9 3.876-1.667 7.586-1.169 10.767a30.11 30.11 0 0 1 -10.542-14.925 1.748 1.748 0 0 0 -.924-1.019 13.566 13.566 0 0 1 -6.851-9.489c-.945-4.932-4.623-7.45-7.579-9.473-2.306-1.578-3.72-2.612-3.72-3.908 0-1.052 2.126-1.552 5.129-2.143 2.693-.531 5.478-1.08 7.485-2.635a6.193 6.193 0 0 1 5.083-1c1.935.381 5.656 1.841 8.826 7.349 4.648 8.075 27.343 30.716 56.67 30.714q1.173 0 2.36-.049 1.008-.041 1.963-.119a1.75 1.75 0 0 0 -.284-3.489q-.885.072-1.824.111a60.991 60.991 0 0 1 -31.114-7.554 8.22 8.22 0 0 1 2.876-1.535 1.75 1.75 0 1 0 -.74-3.42 11.6 11.6 0 0 0 -5.329 3.153q-2.179-1.3-4.185-2.673a8.106 8.106 0 0 1 3.094-1.73 1.75 1.75 0 0 0 -.74-3.42 11.441 11.441 0 0 0 -5.249 3.07q-1.731-1.3-3.292-2.618a7.924 7.924 0 0 1 3.191-1.8 1.75 1.75 0 0 0 -.74-3.42 11.327 11.327 0 0 0 -5.087 2.9c-1.036-.954-2-1.892-2.875-2.8a11.833 11.833 0 0 1 3.612-2.112 1.749 1.749 0 1 0 -1.16-3.3 15.131 15.131 0 0 0 -4.815 2.828 37.767 37.767 0 0 1 -2.421-3.112 7.986 7.986 0 0 1 3.5-2.106 1.75 1.75 0 1 0 -.74-3.42 11.314 11.314 0 0 0 -4.67 2.514c-2.75-4.033-6.3-6.638-10.148-7.394a9.632 9.632 0 0 0 -7.9 1.667c-1.358 1.046-3.726 1.513-6.026 1.965-3.728.735-7.953 1.567-7.953 5.578 0 3.208 2.666 5.032 5.243 6.8 2.677 1.832 5.445 3.727 6.118 7.242a17.161 17.161 0 0 0 8.136 11.644c2.915 8.02 7.756 13.98 14.365 17.779a4.588 4.588 0 0 1 -.615 3.4c-2.451 3.156-7.051 6.325-8.773 7.454-1.446-.446-4.359-1.168-6.492-.537a1.75 1.75 0 1 0 .992 3.357c1.1-.327 3.339.143 4.789.629l.124.124-3.674 2.244a1.75 1.75 0 1 0 1.825 2.987l4.391-2.682.341.343a11.065 11.065 0 0 1 -1.008 4.213 1.75 1.75 0 0 0 .908 2.3 1.724 1.724 0 0 0 .7.146 1.748 1.748 0 0 0 1.6-1.05 14.715 14.715 0 0 0 1.288-5.742c1.492-1.17 2.986-2.174 4.17-2.938a1.75 1.75 0 0 0 -1.9-2.941c-1.143.737-2.564 1.68-4.024 2.8l-1.035-1.042a40.934 40.934 0 0 0 8.542-7.515c1.553-2 1.574-4.311 1.233-6.775v-.016c-.1-.722-.23-1.457-.363-2.2-.6-3.352-1.217-6.818.556-10.432a1.749 1.749 0 0 0 -.802-2.345z" fill="url(#a)"/></svg>